<?xml version="1.0" encoding="UTF-8" standalone="no"?><svg xmlns="http://www.w3.org/2000/svg" xmlns:dc="http://purl.org/dc/elements/1.1/" xmlns:xl="http://www.w3.org/1999/xlink" xmlns:xlink="http://www.w3.org/1999/xlink" contentScriptType="application/ecmascript" contentStyleType="text/css" height="5000" preserveAspectRatio="xMidYMid meet" version="1.1" viewBox="278 176 880 660" width="5000" zoomAndPan="magnify">
  <defs/>
  <g fill="none" fill-opacity="1" id="Canvas_1" stroke="none" stroke-dasharray="none" stroke-opacity="1">
    <title>Canvas 1</title>
    <rect fill="white" height="660" width="880" x="278" y="176"/>
    <g id="Canvas_1_Layer_1">
      <title>Layer 1</title>
      <g id="Graphic_14">
        <rect fill="#616161" height="660" width="880" x="278" y="176"/>
      </g>
      <g id="Group_71">
        <g id="Graphic_48">
          <rect fill="#8e8e8e" height="48" width="210" x="285" y="184"/>
          <text fill="black" transform="translate(290 198.776)">
            <tspan fill="black" font-family="Helvetica Neue" font-size="16" x="86.216" y="15">- - -</tspan>
          </text>
        </g>
        <g id="Graphic_46">
          <path d="M 495 184 L 492.13636 187 L 285 186.98295 L 285 184 Z" fill="white"/>
        </g>
        <g id="Graphic_49">
          <path d="M 285 232 L 288 229 L 287.98295 184 L 285 184 Z" fill="white"/>
        </g>
        <g id="Graphic_50">
          <path d="M 285 232 L 288 229 L 495 229.01705 L 495 232 Z" fill="black"/>
        </g>
        <g id="Graphic_51">
          <path d="M 495 184 L 492 187 L 492.01705 232 L 495 232 Z" fill="black"/>
        </g>
      </g>
      <g id="Group_72">
        <g id="Graphic_77">
          <rect fill="#8e8e8e" height="48" width="210" x="285" y="237"/>
          <text fill="black" transform="translate(290 251.776)">
            <tspan fill="black" font-family="Helvetica Neue" font-size="16" x="86.216" y="15">- - -</tspan>
          </text>
        </g>
        <g id="Graphic_76">
          <path d="M 495 237 L 492.13636 240 L 285 239.98295 L 285 237 Z" fill="white"/>
        </g>
        <g id="Graphic_75">
          <path d="M 285 285 L 288 282 L 287.98295 237 L 285 237 Z" fill="white"/>
        </g>
        <g id="Graphic_74">
          <path d="M 285 285 L 288 282 L 495 282.01705 L 495 285 Z" fill="black"/>
        </g>
        <g id="Graphic_73">
          <path d="M 495 237 L 492 240 L 492.01705 285 L 495 285 Z" fill="black"/>
        </g>
      </g>
      <g id="Group_78">
        <g id="Graphic_83">
          <rect fill="#8e8e8e" height="48" width="210" x="285" y="291"/>
          <text fill="black" transform="translate(290 305.776)">
            <tspan fill="black" font-family="Helvetica Neue" font-size="16" x="86.216" y="15">- - -</tspan>
          </text>
        </g>
        <g id="Graphic_82">
          <path d="M 495 291 L 492.13636 294 L 285 293.98295 L 285 291 Z" fill="white"/>
        </g>
        <g id="Graphic_81">
          <path d="M 285 339 L 288 336 L 287.98295 291 L 285 291 Z" fill="white"/>
        </g>
        <g id="Graphic_80">
          <path d="M 285 339 L 288 336 L 495 336.01705 L 495 339 Z" fill="black"/>
        </g>
        <g id="Graphic_79">
          <path d="M 495 291 L 492 294 L 492.01705 339 L 495 339 Z" fill="black"/>
        </g>
      </g>
      <g id="Group_86">
        <g id="Graphic_15">
          <rect fill="#8e8e8e" height="644" width="644" x="503" y="184"/>
        </g>
        <g id="Graphic_18">
          <path d="M 503 186.7841 L 506 186.7841 L 506 825 L 503 828 Z" fill="white"/>
        </g>
        <g id="Graphic_19">
          <path d="M 1147 184 L 1144 187 L 503 186.7841 L 503 184 Z" fill="white"/>
        </g>
        <g id="Graphic_20">
          <path d="M 1147 825 L 1147 828 L 503 828 L 506 825 Z" fill="black"/>
        </g>
        <g id="Graphic_21">
          <path d="M 1144 187 L 1147 184 L 1147 828 L 1144 825 Z" fill="black"/>
        </g>
        <g id="Graphic_66">
          <path d="M 1135 816 L 1138 819 L 512 819 L 515 816 Z" fill="white"/>
        </g>
        <g id="Graphic_67">
          <path d="M 1135 196 L 1138 193 L 1138 819 L 1135 816 Z" fill="white"/>
        </g>
        <g id="Graphic_84">
          <path d="M 1135 196 L 1138 193 L 512 193 L 515 196 Z" fill="black"/>
        </g>
        <g id="Graphic_85">
          <path d="M 515 196 L 512 193 L 512 819 L 515 816 Z" fill="black"/>
        </g>
      </g>
      <g id="Graphic_87">
        <rect fill="black" height="620" width="620" x="515" y="196"/>
      </g>
      <g id="Graphic_88">
        <rect fill="white" height="30" width="30" x="517.5" y="198.5"/>
      </g>
      <g id="Graphic_91">
        <rect fill="white" height="30" width="30" x="550" y="198.5"/>
      </g>
      <g id="Graphic_93">
        <rect fill="white" height="30" width="30" x="550" y="231"/>
      </g>
      <g id="Graphic_97">
        <rect fill="white" height="30" width="30" x="582.5" y="231"/>
      </g>
      <g id="Graphic_99">
        <rect fill="white" height="30" width="30" x="582.5" y="263.5"/>
      </g>
      <g id="Graphic_101">
        <rect fill="white" height="30" width="30" x="550" y="263.5"/>
      </g>
      <g id="Graphic_113">
        <rect fill="white" height="30" width="30" x="550" y="296"/>
      </g>
      <g id="Graphic_111">
        <rect fill="white" height="30" width="30" x="582.5" y="296"/>
      </g>
      <g id="Graphic_109">
        <rect fill="white" height="30" width="30" x="582.5" y="328.5"/>
      </g>
      <g id="Graphic_107">
        <rect fill="white" height="30" width="30" x="550" y="328.5"/>
      </g>
      <g id="Graphic_121">
        <rect fill="white" height="30" width="30" x="550" y="361"/>
      </g>
      <g id="Graphic_119">
        <rect fill="white" height="30" width="30" x="582.5" y="361"/>
      </g>
      <g id="Graphic_117">
        <rect fill="white" height="30" width="30" x="582.5" y="393.5"/>
      </g>
      <g id="Graphic_115">
        <rect fill="white" height="30" width="30" x="550" y="393.5"/>
      </g>
      <g id="Graphic_129">
        <rect fill="white" height="30" width="30" x="550" y="426"/>
      </g>
      <g id="Graphic_127">
        <rect fill="white" height="30" width="30" x="582.5" y="426"/>
      </g>
      <g id="Graphic_125">
        <rect fill="white" height="30" width="30" x="582.5" y="458.5"/>
      </g>
      <g id="Graphic_123">
        <rect fill="white" height="30" width="30" x="550" y="458.5"/>
      </g>
      <g id="Graphic_137">
        <rect fill="white" height="30" width="30" x="550" y="491"/>
      </g>
      <g id="Graphic_135">
        <rect fill="white" height="30" width="30" x="582.5" y="491"/>
      </g>
      <g id="Graphic_133">
        <rect fill="white" height="30" width="30" x="582.5" y="523.5"/>
      </g>
      <g id="Graphic_131">
        <rect fill="white" height="30" width="30" x="550" y="523.5"/>
      </g>
      <g id="Graphic_145">
        <rect fill="white" height="30" width="30" x="550" y="556"/>
      </g>
      <g id="Graphic_143">
        <rect fill="white" height="30" width="30" x="582.5" y="556"/>
      </g>
      <g id="Graphic_141">
        <rect fill="white" height="30" width="30" x="582.5" y="588.5"/>
      </g>
      <g id="Graphic_139">
        <rect fill="white" height="30" width="30" x="550" y="588.5"/>
      </g>
      <g id="Graphic_153">
        <rect fill="white" height="30" width="30" x="550" y="621"/>
      </g>
      <g id="Graphic_151">
        <rect fill="white" height="30" width="30" x="582.5" y="621"/>
      </g>
      <g id="Graphic_149">
        <rect fill="white" height="30" width="30" x="582.5" y="653.5"/>
      </g>
      <g id="Graphic_147">
        <rect fill="white" height="30" width="30" x="550" y="653.5"/>
      </g>
      <g id="Graphic_161">
        <rect fill="white" height="30" width="30" x="550" y="686"/>
      </g>
      <g id="Graphic_159">
        <rect fill="white" height="30" width="30" x="582.5" y="686"/>
      </g>
      <g id="Graphic_157">
        <rect fill="white" height="30" width="30" x="582.5" y="718.5"/>
      </g>
      <g id="Graphic_155">
        <rect fill="white" height="30" width="30" x="550" y="718.5"/>
      </g>
      <g id="Graphic_169">
        <rect fill="white" height="30" width="30" x="550" y="751"/>
      </g>
      <g id="Graphic_167">
        <rect fill="white" height="30" width="30" x="582.5" y="751"/>
      </g>
      <g id="Graphic_165">
        <rect fill="white" height="30" width="30" x="582.5" y="783.5"/>
      </g>
      <g id="Graphic_163">
        <rect fill="white" height="30" width="30" x="550" y="783.5"/>
      </g>
      <g id="Graphic_177">
        <rect fill="white" height="30" width="30" x="615" y="231"/>
      </g>
      <g id="Graphic_175">
        <rect fill="white" height="30" width="30" x="647.5" y="231"/>
      </g>
      <g id="Graphic_173">
        <rect fill="white" height="30" width="30" x="647.5" y="263.5"/>
      </g>
      <g id="Graphic_171">
        <rect fill="white" height="30" width="30" x="615" y="263.5"/>
      </g>
      <g id="Graphic_185">
        <rect fill="white" height="30" width="30" x="680" y="231"/>
      </g>
      <g id="Graphic_183">
        <rect fill="white" height="30" width="30" x="712.5" y="231"/>
      </g>
      <g id="Graphic_181">
        <rect fill="white" height="30" width="30" x="712.5" y="263.5"/>
      </g>
      <g id="Graphic_179">
        <rect fill="white" height="30" width="30" x="680" y="263.5"/>
      </g>
      <g id="Graphic_193">
        <rect fill="white" height="30" width="30" x="745" y="231"/>
      </g>
      <g id="Graphic_191">
        <rect fill="white" height="30" width="30" x="777.5" y="231"/>
      </g>
      <g id="Graphic_189">
        <rect fill="white" height="30" width="30" x="777.5" y="263.5"/>
      </g>
      <g id="Graphic_187">
        <rect fill="white" height="30" width="30" x="745" y="263.5"/>
      </g>
      <g id="Graphic_201">
        <rect fill="white" height="30" width="30" x="810" y="231"/>
      </g>
      <g id="Graphic_199">
        <rect fill="white" height="30" width="30" x="842.5" y="231"/>
      </g>
      <g id="Graphic_197">
        <rect fill="white" height="30" width="30" x="842.5" y="263.5"/>
      </g>
      <g id="Graphic_195">
        <rect fill="white" height="30" width="30" x="810" y="263.5"/>
      </g>
      <g id="Graphic_209">
        <rect fill="white" height="30" width="30" x="875" y="231"/>
      </g>
      <g id="Graphic_207">
        <rect fill="white" height="30" width="30" x="907.5" y="231"/>
      </g>
      <g id="Graphic_205">
        <rect fill="white" height="30" width="30" x="907.5" y="263.5"/>
      </g>
      <g id="Graphic_203">
        <rect fill="white" height="30" width="30" x="875" y="263.5"/>
      </g>
      <g id="Graphic_217">
        <rect fill="white" height="30" width="30" x="940" y="231"/>
      </g>
      <g id="Graphic_215">
        <rect fill="white" height="30" width="30" x="972.5" y="231"/>
      </g>
      <g id="Graphic_213">
        <rect fill="white" height="30" width="30" x="972.5" y="263.5"/>
      </g>
      <g id="Graphic_211">
        <rect fill="white" height="30" width="30" x="940" y="263.5"/>
      </g>
      <g id="Graphic_225">
        <rect fill="white" height="30" width="30" x="1005" y="231"/>
      </g>
      <g id="Graphic_223">
        <rect fill="white" height="30" width="30" x="1037.5" y="231"/>
      </g>
      <g id="Graphic_221">
        <rect fill="white" height="30" width="30" x="1037.5" y="263.5"/>
      </g>
      <g id="Graphic_219">
        <rect fill="white" height="30" width="30" x="1005" y="263.5"/>
      </g>
      <g id="Graphic_233">
        <rect fill="white" height="30" width="30" x="1070" y="231"/>
      </g>
      <g id="Graphic_231">
        <rect fill="white" height="30" width="30" x="1102.5" y="231"/>
      </g>
      <g id="Graphic_229">
        <rect fill="white" height="30" width="30" x="1102.5" y="263.5"/>
      </g>
      <g id="Graphic_227">
        <rect fill="white" height="30" width="30" x="1070" y="263.5"/>
      </g>
      <g id="Graphic_241">
        <rect fill="white" height="30" width="30" x="615" y="296"/>
      </g>
      <g id="Graphic_239">
        <rect fill="white" height="30" width="30" x="647.5" y="296"/>
      </g>
      <g id="Graphic_237">
        <rect fill="white" height="30" width="30" x="647.5" y="328.5"/>
      </g>
      <g id="Graphic_235">
        <rect fill="white" height="30" width="30" x="615" y="328.5"/>
      </g>
      <g id="Graphic_249">
        <rect fill="white" height="30" width="30" x="680" y="296"/>
      </g>
      <g id="Graphic_247">
        <rect fill="white" height="30" width="30" x="712.5" y="296"/>
      </g>
      <g id="Graphic_245">
        <rect fill="white" height="30" width="30" x="712.5" y="328.5"/>
      </g>
      <g id="Graphic_243">
        <rect fill="white" height="30" width="30" x="680" y="328.5"/>
      </g>
      <g id="Graphic_257">
        <rect fill="white" height="30" width="30" x="745" y="296"/>
      </g>
      <g id="Graphic_255">
        <rect fill="white" height="30" width="30" x="777.5" y="296"/>
      </g>
      <g id="Graphic_253">
        <rect fill="white" height="30" width="30" x="777.5" y="328.5"/>
      </g>
      <g id="Graphic_251">
        <rect fill="white" height="30" width="30" x="745" y="328.5"/>
      </g>
      <g id="Graphic_265">
        <rect fill="white" height="30" width="30" x="810" y="296"/>
      </g>
      <g id="Graphic_263">
        <rect fill="white" height="30" width="30" x="842.5" y="296"/>
      </g>
      <g id="Graphic_261">
        <rect fill="white" height="30" width="30" x="842.5" y="328.5"/>
      </g>
      <g id="Graphic_259">
        <rect fill="white" height="30" width="30" x="810" y="328.5"/>
      </g>
      <g id="Graphic_273">
        <rect fill="white" height="30" width="30" x="875" y="296"/>
      </g>
      <g id="Graphic_271">
        <rect fill="white" height="30" width="30" x="907.5" y="296"/>
      </g>
      <g id="Graphic_269">
        <rect fill="white" height="30" width="30" x="907.5" y="328.5"/>
      </g>
      <g id="Graphic_267">
        <rect fill="white" height="30" width="30" x="875" y="328.5"/>
      </g>
      <g id="Graphic_281">
        <rect fill="white" height="30" width="30" x="940" y="296"/>
      </g>
      <g id="Graphic_279">
        <rect fill="white" height="30" width="30" x="972.5" y="296"/>
      </g>
      <g id="Graphic_277">
        <rect fill="white" height="30" width="30" x="972.5" y="328.5"/>
      </g>
      <g id="Graphic_275">
        <rect fill="white" height="30" width="30" x="940" y="328.5"/>
      </g>
      <g id="Graphic_289">
        <rect fill="white" height="30" width="30" x="1005" y="296"/>
      </g>
      <g id="Graphic_287">
        <rect fill="white" height="30" width="30" x="1037.5" y="296"/>
      </g>
      <g id="Graphic_285">
        <rect fill="white" height="30" width="30" x="1037.5" y="328.5"/>
      </g>
      <g id="Graphic_283">
        <rect fill="white" height="30" width="30" x="1005" y="328.5"/>
      </g>
      <g id="Graphic_297">
        <rect fill="white" height="30" width="30" x="1070" y="296"/>
      </g>
      <g id="Graphic_295">
        <rect fill="white" height="30" width="30" x="1102.5" y="296"/>
      </g>
      <g id="Graphic_293">
        <rect fill="white" height="30" width="30" x="1102.5" y="328.5"/>
      </g>
      <g id="Graphic_291">
        <rect fill="white" height="30" width="30" x="1070" y="328.5"/>
      </g>
      <g id="Graphic_305">
        <rect fill="white" height="30" width="30" x="615" y="361"/>
      </g>
      <g id="Graphic_303">
        <rect fill="white" height="30" width="30" x="647.5" y="361"/>
      </g>
      <g id="Graphic_301">
        <rect fill="white" height="30" width="30" x="647.5" y="393.5"/>
      </g>
      <g id="Graphic_299">
        <rect fill="white" height="30" width="30" x="615" y="393.5"/>
      </g>
      <g id="Graphic_313">
        <rect fill="white" height="30" width="30" x="680" y="361"/>
      </g>
      <g id="Graphic_311">
        <rect fill="white" height="30" width="30" x="712.5" y="361"/>
      </g>
      <g id="Graphic_309">
        <rect fill="white" height="30" width="30" x="712.5" y="393.5"/>
      </g>
      <g id="Graphic_307">
        <rect fill="white" height="30" width="30" x="680" y="393.5"/>
      </g>
      <g id="Graphic_321">
        <rect fill="white" height="30" width="30" x="745" y="361"/>
      </g>
      <g id="Graphic_319">
        <rect fill="white" height="30" width="30" x="777.5" y="361"/>
      </g>
      <g id="Graphic_317">
        <rect fill="white" height="30" width="30" x="777.5" y="393.5"/>
      </g>
      <g id="Graphic_315">
        <rect fill="white" height="30" width="30" x="745" y="393.5"/>
      </g>
      <g id="Graphic_329">
        <rect fill="white" height="30" width="30" x="810" y="361"/>
      </g>
      <g id="Graphic_327">
        <rect fill="white" height="30" width="30" x="842.5" y="361"/>
      </g>
      <g id="Graphic_325">
        <rect fill="white" height="30" width="30" x="842.5" y="393.5"/>
      </g>
      <g id="Graphic_323">
        <rect fill="white" height="30" width="30" x="810" y="393.5"/>
      </g>
      <g id="Graphic_337">
        <rect fill="white" height="30" width="30" x="875" y="361"/>
      </g>
      <g id="Graphic_335">
        <rect fill="white" height="30" width="30" x="907.5" y="361"/>
      </g>
      <g id="Graphic_333">
        <rect fill="white" height="30" width="30" x="907.5" y="393.5"/>
      </g>
      <g id="Graphic_331">
        <rect fill="white" height="30" width="30" x="875" y="393.5"/>
      </g>
      <g id="Graphic_345">
        <rect fill="white" height="30" width="30" x="940" y="361"/>
      </g>
      <g id="Graphic_343">
        <rect fill="white" height="30" width="30" x="972.5" y="361"/>
      </g>
      <g id="Graphic_341">
        <rect fill="white" height="30" width="30" x="972.5" y="393.5"/>
      </g>
      <g id="Graphic_339">
        <rect fill="white" height="30" width="30" x="940" y="393.5"/>
      </g>
      <g id="Graphic_353">
        <rect fill="white" height="30" width="30" x="1005" y="361"/>
      </g>
      <g id="Graphic_351">
        <rect fill="white" height="30" width="30" x="1037.5" y="361"/>
      </g>
      <g id="Graphic_349">
        <rect fill="white" height="30" width="30" x="1037.5" y="393.5"/>
      </g>
      <g id="Graphic_347">
        <rect fill="white" height="30" width="30" x="1005" y="393.5"/>
      </g>
      <g id="Graphic_361">
        <rect fill="white" height="30" width="30" x="1070" y="361"/>
      </g>
      <g id="Graphic_359">
        <rect fill="white" height="30" width="30" x="1102.5" y="361"/>
      </g>
      <g id="Graphic_357">
        <rect fill="white" height="30" width="30" x="1102.5" y="393.5"/>
      </g>
      <g id="Graphic_355">
        <rect fill="white" height="30" width="30" x="1070" y="393.5"/>
      </g>
      <g id="Graphic_369">
        <rect fill="white" height="30" width="30" x="615" y="426"/>
      </g>
      <g id="Graphic_367">
        <rect fill="white" height="30" width="30" x="647.5" y="426"/>
      </g>
      <g id="Graphic_365">
        <rect fill="white" height="30" width="30" x="647.5" y="458.5"/>
      </g>
      <g id="Graphic_363">
        <rect fill="white" height="30" width="30" x="615" y="458.5"/>
      </g>
      <g id="Graphic_377">
        <rect fill="white" height="30" width="30" x="680" y="426"/>
      </g>
      <g id="Graphic_375">
        <rect fill="white" height="30" width="30" x="712.5" y="426"/>
      </g>
      <g id="Graphic_373">
        <rect fill="white" height="30" width="30" x="712.5" y="458.5"/>
      </g>
      <g id="Graphic_371">
        <rect fill="white" height="30" width="30" x="680" y="458.5"/>
      </g>
      <g id="Graphic_385">
        <rect fill="white" height="30" width="30" x="745" y="426"/>
      </g>
      <g id="Graphic_383">
        <rect fill="white" height="30" width="30" x="777.5" y="426"/>
      </g>
      <g id="Graphic_381">
        <rect fill="white" height="30" width="30" x="777.5" y="458.5"/>
      </g>
      <g id="Graphic_379">
        <rect fill="white" height="30" width="30" x="745" y="458.5"/>
      </g>
      <g id="Graphic_393">
        <rect fill="white" height="30" width="30" x="810" y="426"/>
      </g>
      <g id="Graphic_391">
        <rect fill="white" height="30" width="30" x="842.5" y="426"/>
      </g>
      <g id="Graphic_389">
        <rect fill="white" height="30" width="30" x="842.5" y="458.5"/>
      </g>
      <g id="Graphic_387">
        <rect fill="white" height="30" width="30" x="810" y="458.5"/>
      </g>
      <g id="Graphic_401">
        <rect fill="white" height="30" width="30" x="875" y="426"/>
      </g>
      <g id="Graphic_399">
        <rect fill="white" height="30" width="30" x="907.5" y="426"/>
      </g>
      <g id="Graphic_397">
        <rect fill="white" height="30" width="30" x="907.5" y="458.5"/>
      </g>
      <g id="Graphic_395">
        <rect fill="white" height="30" width="30" x="875" y="458.5"/>
      </g>
      <g id="Graphic_409">
        <rect fill="white" height="30" width="30" x="940" y="426"/>
      </g>
      <g id="Graphic_407">
        <rect fill="white" height="30" width="30" x="972.5" y="426"/>
      </g>
      <g id="Graphic_405">
        <rect fill="white" height="30" width="30" x="972.5" y="458.5"/>
      </g>
      <g id="Graphic_403">
        <rect fill="white" height="30" width="30" x="940" y="458.5"/>
      </g>
      <g id="Graphic_417">
        <rect fill="white" height="30" width="30" x="1005" y="426"/>
      </g>
      <g id="Graphic_415">
        <rect fill="white" height="30" width="30" x="1037.5" y="426"/>
      </g>
      <g id="Graphic_413">
        <rect fill="white" height="30" width="30" x="1037.5" y="458.5"/>
      </g>
      <g id="Graphic_411">
        <rect fill="white" height="30" width="30" x="1005" y="458.5"/>
      </g>
      <g id="Graphic_425">
        <rect fill="white" height="30" width="30" x="1070" y="426"/>
      </g>
      <g id="Graphic_423">
        <rect fill="white" height="30" width="30" x="1102.5" y="426"/>
      </g>
      <g id="Graphic_421">
        <rect fill="white" height="30" width="30" x="1102.5" y="458.5"/>
      </g>
      <g id="Graphic_419">
        <rect fill="white" height="30" width="30" x="1070" y="458.5"/>
      </g>
      <g id="Graphic_433">
        <rect fill="white" height="30" width="30" x="615" y="491"/>
      </g>
      <g id="Graphic_431">
        <rect fill="white" height="30" width="30" x="647.5" y="491"/>
      </g>
      <g id="Graphic_429">
        <rect fill="white" height="30" width="30" x="647.5" y="523.5"/>
      </g>
      <g id="Graphic_427">
        <rect fill="white" height="30" width="30" x="615" y="523.5"/>
      </g>
      <g id="Graphic_441">
        <rect fill="white" height="30" width="30" x="680" y="491"/>
      </g>
      <g id="Graphic_439">
        <rect fill="white" height="30" width="30" x="712.5" y="491"/>
      </g>
      <g id="Graphic_437">
        <rect fill="white" height="30" width="30" x="712.5" y="523.5"/>
      </g>
      <g id="Graphic_435">
        <rect fill="white" height="30" width="30" x="680" y="523.5"/>
      </g>
      <g id="Graphic_449">
        <rect fill="white" height="30" width="30" x="745" y="491"/>
      </g>
      <g id="Graphic_447">
        <rect fill="white" height="30" width="30" x="777.5" y="491"/>
      </g>
      <g id="Graphic_445">
        <rect fill="white" height="30" width="30" x="777.5" y="523.5"/>
      </g>
      <g id="Graphic_443">
        <rect fill="white" height="30" width="30" x="745" y="523.5"/>
      </g>
      <g id="Graphic_457">
        <rect fill="white" height="30" width="30" x="810" y="491"/>
      </g>
      <g id="Graphic_455">
        <rect fill="white" height="30" width="30" x="842.5" y="491"/>
      </g>
      <g id="Graphic_453">
        <rect fill="white" height="30" width="30" x="842.5" y="523.5"/>
      </g>
      <g id="Graphic_451">
        <rect fill="white" height="30" width="30" x="810" y="523.5"/>
      </g>
      <g id="Graphic_465">
        <rect fill="white" height="30" width="30" x="875" y="491"/>
      </g>
      <g id="Graphic_463">
        <rect fill="white" height="30" width="30" x="907.5" y="491"/>
      </g>
      <g id="Graphic_461">
        <rect fill="white" height="30" width="30" x="907.5" y="523.5"/>
      </g>
      <g id="Graphic_459">
        <rect fill="white" height="30" width="30" x="875" y="523.5"/>
      </g>
      <g id="Graphic_473">
        <rect fill="white" height="30" width="30" x="940" y="491"/>
      </g>
      <g id="Graphic_471">
        <rect fill="white" height="30" width="30" x="972.5" y="491"/>
      </g>
      <g id="Graphic_469">
        <rect fill="white" height="30" width="30" x="972.5" y="523.5"/>
      </g>
      <g id="Graphic_467">
        <rect fill="white" height="30" width="30" x="940" y="523.5"/>
      </g>
      <g id="Graphic_481">
        <rect fill="white" height="30" width="30" x="1005" y="491"/>
      </g>
      <g id="Graphic_479">
        <rect fill="white" height="30" width="30" x="1037.5" y="491"/>
      </g>
      <g id="Graphic_477">
        <rect fill="white" height="30" width="30" x="1037.5" y="523.5"/>
      </g>
      <g id="Graphic_475">
        <rect fill="white" height="30" width="30" x="1005" y="523.5"/>
      </g>
      <g id="Graphic_489">
        <rect fill="white" height="30" width="30" x="1070" y="491"/>
      </g>
      <g id="Graphic_487">
        <rect fill="white" height="30" width="30" x="1102.5" y="491"/>
      </g>
      <g id="Graphic_485">
        <rect fill="white" height="30" width="30" x="1102.5" y="523.5"/>
      </g>
      <g id="Graphic_483">
        <rect fill="white" height="30" width="30" x="1070" y="523.5"/>
      </g>
      <g id="Graphic_497">
        <rect fill="white" height="30" width="30" x="615" y="556"/>
      </g>
      <g id="Graphic_495">
        <rect fill="white" height="30" width="30" x="647.5" y="556"/>
      </g>
      <g id="Graphic_493">
        <rect fill="white" height="30" width="30" x="647.5" y="588.5"/>
      </g>
      <g id="Graphic_491">
        <rect fill="white" height="30" width="30" x="615" y="588.5"/>
      </g>
      <g id="Graphic_505">
        <rect fill="white" height="30" width="30" x="680" y="556"/>
      </g>
      <g id="Graphic_503">
        <rect fill="white" height="30" width="30" x="712.5" y="556"/>
      </g>
      <g id="Graphic_501">
        <rect fill="white" height="30" width="30" x="712.5" y="588.5"/>
      </g>
      <g id="Graphic_499">
        <rect fill="white" height="30" width="30" x="680" y="588.5"/>
      </g>
      <g id="Graphic_513">
        <rect fill="white" height="30" width="30" x="745" y="556"/>
      </g>
      <g id="Graphic_511">
        <rect fill="white" height="30" width="30" x="777.5" y="556"/>
      </g>
      <g id="Graphic_509">
        <rect fill="white" height="30" width="30" x="777.5" y="588.5"/>
      </g>
      <g id="Graphic_507">
        <rect fill="white" height="30" width="30" x="745" y="588.5"/>
      </g>
      <g id="Graphic_521">
        <rect fill="white" height="30" width="30" x="810" y="556"/>
      </g>
      <g id="Graphic_519">
        <rect fill="white" height="30" width="30" x="842.5" y="556"/>
      </g>
      <g id="Graphic_517">
        <rect fill="white" height="30" width="30" x="842.5" y="588.5"/>
      </g>
      <g id="Graphic_515">
        <rect fill="white" height="30" width="30" x="810" y="588.5"/>
      </g>
      <g id="Graphic_529">
        <rect fill="white" height="30" width="30" x="875" y="556"/>
      </g>
      <g id="Graphic_527">
        <rect fill="white" height="30" width="30" x="907.5" y="556"/>
      </g>
      <g id="Graphic_525">
        <rect fill="white" height="30" width="30" x="907.5" y="588.5"/>
      </g>
      <g id="Graphic_523">
        <rect fill="white" height="30" width="30" x="875" y="588.5"/>
      </g>
      <g id="Graphic_537">
        <rect fill="white" height="30" width="30" x="940" y="556"/>
      </g>
      <g id="Graphic_535">
        <rect fill="white" height="30" width="30" x="972.5" y="556"/>
      </g>
      <g id="Graphic_533">
        <rect fill="white" height="30" width="30" x="972.5" y="588.5"/>
      </g>
      <g id="Graphic_531">
        <rect fill="white" height="30" width="30" x="940" y="588.5"/>
      </g>
      <g id="Graphic_545">
        <rect fill="white" height="30" width="30" x="1005" y="556"/>
      </g>
      <g id="Graphic_543">
        <rect fill="white" height="30" width="30" x="1037.5" y="556"/>
      </g>
      <g id="Graphic_541">
        <rect fill="white" height="30" width="30" x="1037.5" y="588.5"/>
      </g>
      <g id="Graphic_539">
        <rect fill="white" height="30" width="30" x="1005" y="588.5"/>
      </g>
      <g id="Graphic_553">
        <rect fill="white" height="30" width="30" x="1070" y="556"/>
      </g>
      <g id="Graphic_551">
        <rect fill="white" height="30" width="30" x="1102.5" y="556"/>
      </g>
      <g id="Graphic_549">
        <rect fill="white" height="30" width="30" x="1102.5" y="588.5"/>
      </g>
      <g id="Graphic_547">
        <rect fill="white" height="30" width="30" x="1070" y="588.5"/>
      </g>
      <g id="Graphic_561">
        <rect fill="white" height="30" width="30" x="615" y="621"/>
      </g>
      <g id="Graphic_559">
        <rect fill="white" height="30" width="30" x="647.5" y="621"/>
      </g>
      <g id="Graphic_557">
        <rect fill="white" height="30" width="30" x="647.5" y="653.5"/>
      </g>
      <g id="Graphic_555">
        <rect fill="white" height="30" width="30" x="615" y="653.5"/>
      </g>
      <g id="Graphic_569">
        <rect fill="white" height="30" width="30" x="680" y="621"/>
      </g>
      <g id="Graphic_567">
        <rect fill="white" height="30" width="30" x="712.5" y="621"/>
      </g>
      <g id="Graphic_565">
        <rect fill="white" height="30" width="30" x="712.5" y="653.5"/>
      </g>
      <g id="Graphic_563">
        <rect fill="white" height="30" width="30" x="680" y="653.5"/>
      </g>
      <g id="Graphic_577">
        <rect fill="white" height="30" width="30" x="745" y="621"/>
      </g>
      <g id="Graphic_575">
        <rect fill="white" height="30" width="30" x="777.5" y="621"/>
      </g>
      <g id="Graphic_573">
        <rect fill="white" height="30" width="30" x="777.5" y="653.5"/>
      </g>
      <g id="Graphic_571">
        <rect fill="white" height="30" width="30" x="745" y="653.5"/>
      </g>
      <g id="Graphic_585">
        <rect fill="white" height="30" width="30" x="810" y="621"/>
      </g>
      <g id="Graphic_583">
        <rect fill="white" height="30" width="30" x="842.5" y="621"/>
      </g>
      <g id="Graphic_581">
        <rect fill="white" height="30" width="30" x="842.5" y="653.5"/>
      </g>
      <g id="Graphic_579">
        <rect fill="white" height="30" width="30" x="810" y="653.5"/>
      </g>
      <g id="Graphic_593">
        <rect fill="white" height="30" width="30" x="875" y="621"/>
      </g>
      <g id="Graphic_591">
        <rect fill="white" height="30" width="30" x="907.5" y="621"/>
      </g>
      <g id="Graphic_589">
        <rect fill="white" height="30" width="30" x="907.5" y="653.5"/>
      </g>
      <g id="Graphic_587">
        <rect fill="white" height="30" width="30" x="875" y="653.5"/>
      </g>
      <g id="Graphic_601">
        <rect fill="white" height="30" width="30" x="940" y="621"/>
      </g>
      <g id="Graphic_599">
        <rect fill="white" height="30" width="30" x="972.5" y="621"/>
      </g>
      <g id="Graphic_597">
        <rect fill="white" height="30" width="30" x="972.5" y="653.5"/>
      </g>
      <g id="Graphic_595">
        <rect fill="white" height="30" width="30" x="940" y="653.5"/>
      </g>
      <g id="Graphic_609">
        <rect fill="white" height="30" width="30" x="1005" y="621"/>
      </g>
      <g id="Graphic_607">
        <rect fill="white" height="30" width="30" x="1037.5" y="621"/>
      </g>
      <g id="Graphic_605">
        <rect fill="white" height="30" width="30" x="1037.5" y="653.5"/>
      </g>
      <g id="Graphic_603">
        <rect fill="white" height="30" width="30" x="1005" y="653.5"/>
      </g>
      <g id="Graphic_617">
        <rect fill="white" height="30" width="30" x="1070" y="621"/>
      </g>
      <g id="Graphic_615">
        <rect fill="white" height="30" width="30" x="1102.5" y="621"/>
      </g>
      <g id="Graphic_613">
        <rect fill="white" height="30" width="30" x="1102.5" y="653.5"/>
      </g>
      <g id="Graphic_611">
        <rect fill="white" height="30" width="30" x="1070" y="653.5"/>
      </g>
      <g id="Graphic_625">
        <rect fill="white" height="30" width="30" x="615" y="686"/>
      </g>
      <g id="Graphic_623">
        <rect fill="white" height="30" width="30" x="647.5" y="686"/>
      </g>
      <g id="Graphic_621">
        <rect fill="white" height="30" width="30" x="647.5" y="718.5"/>
      </g>
      <g id="Graphic_619">
        <rect fill="white" height="30" width="30" x="615" y="718.5"/>
      </g>
      <g id="Graphic_633">
        <rect fill="white" height="30" width="30" x="680" y="686"/>
      </g>
      <g id="Graphic_631">
        <rect fill="white" height="30" width="30" x="712.5" y="686"/>
      </g>
      <g id="Graphic_629">
        <rect fill="white" height="30" width="30" x="712.5" y="718.5"/>
      </g>
      <g id="Graphic_627">
        <rect fill="white" height="30" width="30" x="680" y="718.5"/>
      </g>
      <g id="Graphic_641">
        <rect fill="white" height="30" width="30" x="745" y="686"/>
      </g>
      <g id="Graphic_639">
        <rect fill="white" height="30" width="30" x="777.5" y="686"/>
      </g>
      <g id="Graphic_637">
        <rect fill="white" height="30" width="30" x="777.5" y="718.5"/>
      </g>
      <g id="Graphic_635">
        <rect fill="white" height="30" width="30" x="745" y="718.5"/>
      </g>
      <g id="Graphic_649">
        <rect fill="white" height="30" width="30" x="810" y="686"/>
      </g>
      <g id="Graphic_647">
        <rect fill="white" height="30" width="30" x="842.5" y="686"/>
      </g>
      <g id="Graphic_645">
        <rect fill="white" height="30" width="30" x="842.5" y="718.5"/>
      </g>
      <g id="Graphic_643">
        <rect fill="white" height="30" width="30" x="810" y="718.5"/>
      </g>
      <g id="Graphic_657">
        <rect fill="white" height="30" width="30" x="875" y="686"/>
      </g>
      <g id="Graphic_655">
        <rect fill="white" height="30" width="30" x="907.5" y="686"/>
      </g>
      <g id="Graphic_653">
        <rect fill="white" height="30" width="30" x="907.5" y="718.5"/>
      </g>
      <g id="Graphic_651">
        <rect fill="white" height="30" width="30" x="875" y="718.5"/>
      </g>
      <g id="Graphic_665">
        <rect fill="white" height="30" width="30" x="940" y="686"/>
      </g>
      <g id="Graphic_663">
        <rect fill="white" height="30" width="30" x="972.5" y="686"/>
      </g>
      <g id="Graphic_661">
        <rect fill="white" height="30" width="30" x="972.5" y="718.5"/>
      </g>
      <g id="Graphic_659">
        <rect fill="white" height="30" width="30" x="940" y="718.5"/>
      </g>
      <g id="Graphic_673">
        <rect fill="white" height="30" width="30" x="1005" y="686"/>
      </g>
      <g id="Graphic_671">
        <rect fill="white" height="30" width="30" x="1037.5" y="686"/>
      </g>
      <g id="Graphic_669">
        <rect fill="white" height="30" width="30" x="1037.5" y="718.5"/>
      </g>
      <g id="Graphic_667">
        <rect fill="white" height="30" width="30" x="1005" y="718.5"/>
      </g>
      <g id="Graphic_681">
        <rect fill="white" height="30" width="30" x="1070" y="686"/>
      </g>
      <g id="Graphic_679">
        <rect fill="white" height="30" width="30" x="1102.5" y="686"/>
      </g>
      <g id="Graphic_677">
        <rect fill="white" height="30" width="30" x="1102.5" y="718.5"/>
      </g>
      <g id="Graphic_675">
        <rect fill="white" height="30" width="30" x="1070" y="718.5"/>
      </g>
      <g id="Graphic_689">
        <rect fill="white" height="30" width="30" x="615" y="751"/>
      </g>
      <g id="Graphic_687">
        <rect fill="white" height="30" width="30" x="647.5" y="751"/>
      </g>
      <g id="Graphic_685">
        <rect fill="white" height="30" width="30" x="647.5" y="783.5"/>
      </g>
      <g id="Graphic_683">
        <rect fill="white" height="30" width="30" x="615" y="783.5"/>
      </g>
      <g id="Graphic_697">
        <rect fill="white" height="30" width="30" x="680" y="751"/>
      </g>
      <g id="Graphic_695">
        <rect fill="white" height="30" width="30" x="712.5" y="751"/>
      </g>
      <g id="Graphic_693">
        <rect fill="white" height="30" width="30" x="712.5" y="783.5"/>
      </g>
      <g id="Graphic_691">
        <rect fill="white" height="30" width="30" x="680" y="783.5"/>
      </g>
      <g id="Graphic_705">
        <rect fill="white" height="30" width="30" x="745" y="751"/>
      </g>
      <g id="Graphic_703">
        <rect fill="white" height="30" width="30" x="777.5" y="751"/>
      </g>
      <g id="Graphic_701">
        <rect fill="white" height="30" width="30" x="777.5" y="783.5"/>
      </g>
      <g id="Graphic_699">
        <rect fill="white" height="30" width="30" x="745" y="783.5"/>
      </g>
      <g id="Graphic_713">
        <rect fill="white" height="30" width="30" x="810" y="751"/>
      </g>
      <g id="Graphic_711">
        <rect fill="white" height="30" width="30" x="842.5" y="751"/>
      </g>
      <g id="Graphic_709">
        <rect fill="white" height="30" width="30" x="842.5" y="783.5"/>
      </g>
      <g id="Graphic_707">
        <rect fill="white" height="30" width="30" x="810" y="783.5"/>
      </g>
      <g id="Graphic_721">
        <rect fill="white" height="30" width="30" x="875" y="751"/>
      </g>
      <g id="Graphic_719">
        <rect fill="white" height="30" width="30" x="907.5" y="751"/>
      </g>
      <g id="Graphic_717">
        <rect fill="white" height="30" width="30" x="907.5" y="783.5"/>
      </g>
      <g id="Graphic_715">
        <rect fill="white" height="30" width="30" x="875" y="783.5"/>
      </g>
      <g id="Graphic_729">
        <rect fill="white" height="30" width="30" x="940" y="751"/>
      </g>
      <g id="Graphic_727">
        <rect fill="white" height="30" width="30" x="972.5" y="751"/>
      </g>
      <g id="Graphic_725">
        <rect fill="white" height="30" width="30" x="972.5" y="783.5"/>
      </g>
      <g id="Graphic_723">
        <rect fill="white" height="30" width="30" x="940" y="783.5"/>
      </g>
      <g id="Graphic_737">
        <rect fill="white" height="30" width="30" x="1005" y="751"/>
      </g>
      <g id="Graphic_735">
        <rect fill="white" height="30" width="30" x="1037.5" y="751"/>
      </g>
      <g id="Graphic_733">
        <rect fill="white" height="30" width="30" x="1037.5" y="783.5"/>
      </g>
      <g id="Graphic_731">
        <rect fill="white" height="30" width="30" x="1005" y="783.5"/>
      </g>
      <g id="Graphic_745">
        <rect fill="white" height="30" width="30" x="1070" y="751"/>
      </g>
      <g id="Graphic_743">
        <rect fill="white" height="30" width="30" x="1102.5" y="751"/>
      </g>
      <g id="Graphic_741">
        <rect fill="white" height="30" width="30" x="1102.5" y="783.5"/>
      </g>
      <g id="Graphic_739">
        <rect fill="white" height="30" width="30" x="1070" y="783.5"/>
      </g>
      <g id="Graphic_753">
        <rect fill="white" height="30" width="30" x="582.5" y="198.5"/>
      </g>
      <g id="Graphic_751">
        <rect fill="white" height="30" width="30" x="680" y="198.5"/>
      </g>
      <g id="Graphic_749">
        <rect fill="white" height="30" width="30" x="647.5" y="198.5"/>
      </g>
      <g id="Graphic_747">
        <rect fill="white" height="30" width="30" x="615" y="198.5"/>
      </g>
      <g id="Graphic_763">
        <rect fill="white" height="30" width="30" x="712.5" y="198.5"/>
      </g>
      <g id="Graphic_761">
        <rect fill="white" height="30" width="30" x="745" y="198.5"/>
      </g>
      <g id="Graphic_759">
        <rect fill="white" height="30" width="30" x="842.5" y="198.5"/>
      </g>
      <g id="Graphic_757">
        <rect fill="white" height="30" width="30" x="810" y="198.5"/>
      </g>
      <g id="Graphic_755">
        <rect fill="white" height="30" width="30" x="777.5" y="198.5"/>
      </g>
      <g id="Graphic_773">
        <rect fill="white" height="30" width="30" x="875" y="198.5"/>
      </g>
      <g id="Graphic_771">
        <rect fill="white" height="30" width="30" x="907.5" y="198.5"/>
      </g>
      <g id="Graphic_769">
        <rect fill="white" height="30" width="30" x="1005" y="198.5"/>
      </g>
      <g id="Graphic_767">
        <rect fill="white" height="30" width="30" x="972.5" y="198.5"/>
      </g>
      <g id="Graphic_765">
        <rect fill="white" height="30" width="30" x="940" y="198.5"/>
      </g>
      <g id="Graphic_783">
        <rect fill="white" height="30" width="30" x="1037.5" y="198.5"/>
      </g>
      <g id="Graphic_781">
        <rect fill="white" height="30" width="30" x="1070" y="198.5"/>
      </g>
      <g id="Graphic_775">
        <rect fill="white" height="30" width="30" x="1102.5" y="198.5"/>
      </g>
      <g id="Graphic_785">
        <rect fill="white" height="30" width="30" x="517.5" y="231"/>
      </g>
      <g id="Graphic_789">
        <rect fill="white" height="30" width="30" x="517.5" y="263.5"/>
      </g>
      <g id="Graphic_787">
        <rect fill="white" height="30" width="30" x="517.5" y="296"/>
      </g>
      <g id="Graphic_793">
        <rect fill="white" height="30" width="30" x="517.5" y="328.5"/>
      </g>
      <g id="Graphic_791">
        <rect fill="white" height="30" width="30" x="517.5" y="361"/>
      </g>
      <g id="Graphic_797">
        <rect fill="white" height="30" width="30" x="517.5" y="393.5"/>
      </g>
      <g id="Graphic_795">
        <rect fill="white" height="30" width="30" x="517.5" y="426"/>
      </g>
      <g id="Graphic_801">
        <rect fill="white" height="30" width="30" x="517.5" y="458.5"/>
      </g>
      <g id="Graphic_799">
        <rect fill="white" height="30" width="30" x="517.5" y="491"/>
      </g>
      <g id="Graphic_805">
        <rect fill="white" height="30" width="30" x="517.5" y="523.5"/>
      </g>
      <g id="Graphic_803">
        <rect fill="white" height="30" width="30" x="517.5" y="556"/>
      </g>
      <g id="Graphic_809">
        <rect fill="white" height="30" width="30" x="517.5" y="588.5"/>
      </g>
      <g id="Graphic_807">
        <rect fill="white" height="30" width="30" x="517.5" y="621"/>
      </g>
      <g id="Graphic_813">
        <rect fill="white" height="30" width="30" x="517.5" y="653.5"/>
      </g>
      <g id="Graphic_811">
        <rect fill="white" height="30" width="30" x="517.5" y="686"/>
      </g>
      <g id="Graphic_817">
        <rect fill="white" height="30" width="30" x="517.5" y="718.5"/>
      </g>
      <g id="Graphic_815">
        <rect fill="white" height="30" width="30" x="517.5" y="751"/>
      </g>
      <g id="Graphic_821">
        <rect fill="white" height="30" width="30" x="517.5" y="783.5"/>
      </g>
      <g id="Group_846">
        <g id="Graphic_827">
          <rect fill="#8e8e8e" height="48" width="101" x="285" y="725"/>
          <text fill="black" transform="translate(290 739.776)">
            <tspan fill="black" font-family="Helvetica Neue" font-size="16" x="31.716" y="15">- - -</tspan>
          </text>
        </g>
        <g id="Graphic_826">
          <path d="M 386 725 L 383 728 L 285 727.98295 L 285 725 Z" fill="white"/>
        </g>
        <g id="Graphic_825">
          <path d="M 285 773 L 288 770 L 287.98295 725 L 285 725 Z" fill="white"/>
        </g>
        <g id="Graphic_824">
          <path d="M 285 773 L 288 770 L 383 770 L 386 773 Z" fill="black"/>
        </g>
        <g id="Graphic_823">
          <path d="M 386 725 L 383 728 L 383.01705 773 L 386 773 Z" fill="black"/>
        </g>
      </g>
      <g id="Group_847">
        <g id="Graphic_834">
          <rect fill="#8e8e8e" height="48" width="99" x="394" y="725"/>
          <text fill="black" transform="translate(399 739.776)">
            <tspan fill="black" font-family="Helvetica Neue" font-size="16" x="30.716" y="15">- - -</tspan>
          </text>
        </g>
        <g id="Graphic_833">
          <path d="M 495 725 L 492 728 L 394 728 L 394 725 Z" fill="white"/>
        </g>
        <g id="Graphic_832">
          <path d="M 394 773 L 397 770 L 396.98295 725 L 394 725 Z" fill="white"/>
        </g>
        <g id="Graphic_831">
          <path d="M 394 773 L 397 770 L 492 770 L 495 773 Z" fill="black"/>
        </g>
        <g id="Graphic_830">
          <path d="M 495 725 L 492 728 L 492.01705 773 L 495 773 Z" fill="black"/>
        </g>
      </g>
      <g id="Group_854">
        <g id="Graphic_859">
          <rect fill="#8e8e8e" height="48" width="101" x="285" y="780"/>
          <text fill="black" transform="translate(290 794.776)">
            <tspan fill="black" font-family="Helvetica Neue" font-size="16" x="31.716" y="15">- - -</tspan>
          </text>
        </g>
        <g id="Graphic_858">
          <path d="M 386 780 L 383 783 L 285 782.98295 L 285 780 Z" fill="white"/>
        </g>
        <g id="Graphic_857">
          <path d="M 285 828 L 288 825 L 287.98295 780 L 285 780 Z" fill="white"/>
        </g>
        <g id="Graphic_856">
          <path d="M 285 828 L 288 825 L 383 825 L 386 828 Z" fill="black"/>
        </g>
        <g id="Graphic_855">
          <path d="M 386 780 L 383 783 L 383.01705 828 L 386 828 Z" fill="black"/>
        </g>
      </g>
      <g id="Group_848">
        <g id="Graphic_853">
          <rect fill="#8e8e8e" height="48" width="99" x="394" y="780"/>
          <text fill="black" transform="translate(399 794.776)">
            <tspan fill="black" font-family="Helvetica Neue" font-size="16" x="30.716" y="15">- - -</tspan>
          </text>
        </g>
        <g id="Graphic_852">
          <path d="M 495 780 L 492 783 L 394 783 L 394 780 Z" fill="white"/>
        </g>
        <g id="Graphic_851">
          <path d="M 394 828 L 397 825 L 396.98295 780 L 394 780 Z" fill="white"/>
        </g>
        <g id="Graphic_850">
          <path d="M 394 828 L 397 825 L 492 825 L 495 828 Z" fill="black"/>
        </g>
        <g id="Graphic_849">
          <path d="M 495 780 L 492 783 L 492.01705 828 L 495 828 Z" fill="black"/>
        </g>
      </g>
    </g>
  </g>
<style xml:space="preserve">        svg text {
                -webkit-user-select: none;
                -moz-user-select: none;
                -ms-user-select: none;
                user-select: none;
                }
                svg text::selection {
                background: none;
                }
</style><script xlink:actuate="onLoad" xlink:href="/gvg/uiactions.js" xlink:show="other" xlink:type="simple"/><script xlink:actuate="onLoad" xlink:href="/foo/baz.js" xlink:show="other" xlink:type="simple"/></svg>